<?xml version="1.0" encoding="UTF-8" standalone="no"?>
<!-- Created with Inkscape (http://www.inkscape.org/) -->

<svg
   width="512"
   height="512"
   viewBox="0 0 512 512"
   version="1.1"
   id="svg1"
   xml:space="preserve"
   inkscape:export-filename="anubee.svg"
   inkscape:export-xdpi="96"
   inkscape:export-ydpi="96"
   inkscape:version="1.4.4 (dcaf3e7, 2026-05-05)"
   sodipodi:docname="anubee-logo-fixed.svg"
   xmlns:inkscape="http://www.inkscape.org/namespaces/inkscape"
   xmlns:sodipodi="http://sodipodi.sourceforge.net/DTD/sodipodi-0.dtd"
   xmlns:xlink="http://www.w3.org/1999/xlink"
   xmlns="http://www.w3.org/2000/svg"
   xmlns:svg="http://www.w3.org/2000/svg"><sodipodi:namedview
     id="namedview1"
     pagecolor="#ffffff"
     bordercolor="#000000"
     borderopacity="0.25"
     inkscape:showpageshadow="2"
     inkscape:pageopacity="0.0"
     inkscape:pagecheckerboard="0"
     inkscape:deskcolor="#d1d1d1"
     inkscape:document-units="px"
     showguides="true"
     showgrid="false"
     inkscape:zoom="0.9700659"
     inkscape:cx="224.727"
     inkscape:cy="253.59102"
     inkscape:window-width="1920"
     inkscape:window-height="991"
     inkscape:window-x="-9"
     inkscape:window-y="1071"
     inkscape:window-maximized="1"
     inkscape:current-layer="svg1"><inkscape:grid
       id="grid1"
       units="px"
       originx="0"
       originy="0"
       spacingx="1"
       spacingy="1"
       empcolor="#0099e5"
       empopacity="0.30196078"
       color="#0099e5"
       opacity="0.14901961"
       empspacing="5"
       enabled="true"
       visible="false" /><inkscape:grid
       type="axonomgrid"
       id="grid2"
       units="px"
       originx="0"
       originy="0"
       spacingx="3.7795276"
       spacingy="3.7795276"
       empcolor="#0099e5"
       empopacity="0.30196078"
       color="#0099e5"
       opacity="0.14901961"
       empspacing="5"
       dotted="false"
       gridanglex="30"
       gridanglez="30"
       enabled="true"
       visible="false" /><inkscape:grid
       id="grid3"
       units="px"
       originx="0"
       originy="0"
       spacingx="1"
       spacingy="1"
       empcolor="#0099e5"
       empopacity="0.30196078"
       color="#0099e5"
       opacity="0.14901961"
       empspacing="5"
       enabled="true"
       visible="false" /></sodipodi:namedview><defs
     id="defs1" /><g
     inkscape:groupmode="layer"
     id="layer2"
     inkscape:label="Elements-left"
     style="display:inline"><path
       style="display:inline;opacity:1;fill:#19161c;fill-opacity:1"
       d="m 220,155 -6,25 19.79958,-11 z"
       id="path4" /><path
       style="opacity:1;fill:#555557;fill-opacity:1"
       d="m 220,155 -5,-44 3,-6.31117 L 233.79958,169 Z"
       id="path5" /><path
       style="display:inline;opacity:1;fill:#858686;fill-opacity:1"
       d="m 215,111 3,-6.31117 L 205.58216,62 Z"
       id="path8" /><path
       style="opacity:1;fill:#666666;fill-opacity:1"
       d="m 215,111 1,9 -13,-39 2.58216,-19 z"
       id="path9"
       sodipodi:nodetypes="ccccc" /><path
       style="opacity:1;fill:#151616;fill-opacity:1"
       d="M 233.79958,169 237,159.50918 218,105 Z"
       id="path10" /><path
       style="display:inline;opacity:1;fill:#2e2e32;fill-opacity:0.501961"
       d="M 233.79958,169 257,158 l -20,1.50918 z"
       id="path11" /><path
       style="display:inline;opacity:1;fill:#3a3a3c;fill-opacity:1"
       d="M 233.79958,169 256.53659,168 257,158 Z"
       id="path13" /><path
       style="opacity:1;fill:#515157;fill-opacity:1"
       d="m 233.79958,169 22.73701,-1 v 23 z"
       id="path14" /><path
       style="display:inline;opacity:1;fill:#646369;fill-opacity:1"
       d="M 233.79958,169 256.53659,191 237,194 Z"
       id="path15" /><path
       style="display:inline;opacity:1;fill:#7f5936;fill-opacity:1"
       d="m 256.53659,191 h -7.06148 L 237,172 Z"
       id="path16" /><path
       style="opacity:1;fill:#f2dcb2;fill-opacity:1"
       d="m 238.94119,174 11.59246,16 h 4.77337 z"
       id="path17" /><path
       style="display:inline;opacity:1;fill:#7f7d83;fill-opacity:1"
       d="M 256.53659,191 243,210 237,194 Z"
       id="path18" /><path
       style="display:inline;opacity:1;fill:#2d2c32;fill-opacity:1"
       d="M 237,194 218,193.89386 233.79958,169 Z"
       id="path19" /><path
       style="display:inline;opacity:1;fill:#48454c;fill-opacity:1"
       d="m 214,180 4,13.89386 L 233.79958,169 Z"
       id="path20"
       sodipodi:nodetypes="cccc" /><path
       style="display:inline;opacity:1;fill:#1a1d24;fill-opacity:1"
       d="M 218,193.89386 243,210 237,194 Z"
       id="path21"
       sodipodi:nodetypes="cccc" /><path
       style="display:inline;opacity:1;fill:#69686d;fill-opacity:1"
       d="M 218,193.89386 222,209 l 21,1 z"
       id="path22"
       sodipodi:nodetypes="cccc" /><path
       style="display:inline;opacity:1;fill:#8e8c91;fill-opacity:1"
       d="m 243,210 -7,8 -14,-9 z"
       id="path23" /><path
       style="display:inline;opacity:1;fill:#9a999d;fill-opacity:1"
       d="m 243,210 3,15 -10,-7 z"
       id="path24" /><path
       style="display:inline;opacity:1;fill:#3e3d3b;fill-opacity:1"
       d="m 243,210 14,23 -11,-7.82223 z"
       id="path25" /><path
       style="display:inline;opacity:1;fill:#4e4e50;fill-opacity:1"
       d="M 256.53659,191 257,233 243,210 Z"
       id="path26" /><path
       style="opacity:1;fill:#131317;fill-opacity:1"
       d="M 257,233 244.69987,238.25701 246,225.17777 Z"
       id="path27"
       inkscape:label="path27-" /><path
       style="opacity:1;fill:#232428;fill-opacity:1"
       d="M 246,225.17777 244.69987,238.25701 236,218 Z"
       id="path28" /><path
       style="opacity:1;fill:#1a1b20;fill-opacity:1"
       d="m 236,218 -9.21128,4.40757 17.91115,15.84944 z"
       id="path29" /><path
       style="opacity:1;fill:#3b3c41;fill-opacity:1"
       d="m 236,218 -14,-9 4.78872,13.40757 z"
       id="path30" /><path
       style="opacity:1;fill:#1f2229;fill-opacity:1"
       d="m 222,209 -19.24316,7.86671 24.03188,5.54086 z"
       id="path31" /><path
       style="opacity:1;fill:#2a2522;fill-opacity:1"
       d="M 222,209 202.75684,216.86671 218,193.89386 Z"
       id="path32" /><path
       style="opacity:1;fill:#1b1c20;fill-opacity:1"
       d="M 218,193.89386 202.75684,216.86671 214,180 Z"
       id="path33" /><path
       style="opacity:1;fill:#2b2a30;fill-opacity:1"
       d="m 214,180 -12.72501,12.64155 1.48185,24.22516 z"
       id="path34" /><path
       style="opacity:1;fill:#321f10;fill-opacity:1"
       d="m 202.75684,216.86671 6.70058,7.34486 16.4293,4.83215 0.902,-6.63615 z"
       id="path35" /><path
       style="opacity:1;fill:#2e1b0d;fill-opacity:1"
       d="m 226.78872,222.40757 10.63072,15.46287 -11.53272,-8.82672 z"
       id="path36" /><path
       style="opacity:1;fill:#0b0706;fill-opacity:1"
       d="m 226.78872,222.40757 10.63072,15.46287 7.28043,0.38657 z"
       id="path37" /><path
       style="display:inline;opacity:1;fill:#dfa651;fill-opacity:1"
       d="m 237.41944,237.87044 -16.23601,-2.12615 -7.22278,-10.20824 11.92607,3.50767 z"
       id="path38" /><path
       style="opacity:1;fill:#503824;fill-opacity:1"
       d="m 209.45742,224.21157 7.28043,15.72058 4.44558,-4.18786 -7.22278,-10.20824 z"
       id="path39" /><path
       style="opacity:1;fill:#3c2819;fill-opacity:1"
       d="m 216.73785,239.93215 4.44558,-4.18786 16.23601,2.12615 z"
       id="path40" /><path
       style="opacity:1;fill:#222123;fill-opacity:1"
       d="m 237.41944,237.87044 2.06171,7.79586 5.21872,-7.40929 z"
       id="path41" /><path
       style="display:inline;opacity:1;fill:#282320;fill-opacity:1"
       d="m 239.48115,245.6663 7.15158,10.24415 -1.93286,-17.65344 z"
       id="path42" /><path
       style="opacity:1;fill:#6a6b70;fill-opacity:1"
       d="m 244.69987,238.25701 1.93286,17.65344 L 257,233 Z"
       id="path43" /><path
       style="opacity:1;fill:#7d7c7e;fill-opacity:1"
       d="m 257,233 -1,23 -9.75384,2.87417 0.38657,-2.96372 z"
       id="path44" /><path
       style="fill:#fdf4bd;fill-opacity:1;stroke-width:0.999998"
       d="m 225.88672,229.04372 7.7674,5.94489 L 222.92301,233 l -5.25094,-6.37235 z"
       id="path1"
       inkscape:label="path45" /><path
       style="fill:#282c35;fill-opacity:1"
       d="m 209.45742,224.21157 -6.70058,-7.34486 3.25603,26.59476 10.72498,-3.52932 z"
       id="path2" /><path
       style="fill:#484443;fill-opacity:1"
       d="M 216.73785,239.93215 236,247.08373 l -1.0123,-8.82672 z"
       id="path3" /><path
       style="fill:#312f34;fill-opacity:1"
       d="m 234.9877,238.25701 1.0123,8.82672 3.48115,-1.41743 z"
       id="path6" /><path
       style="fill:#120f0f;fill-opacity:1"
       d="m 234.9877,238.25701 4.49345,7.40929 -2.06171,-7.79586 z"
       id="path7" /><path
       style="fill:#1e212a;fill-opacity:1"
       d="m 216.73785,239.93215 -4.35943,8.90515 -6.36555,-5.37583 z"
       id="path12" /><path
       style="fill:#23252d;fill-opacity:1"
       d="m 216.73785,239.93215 -4.35943,8.90515 c 0,0 23.62158,-1.75357 23.62158,-1.75357 z"
       id="path45" /><path
       style="fill:#15151c;fill-opacity:1"
       d="M 212.37842,248.8373 224.69161,260.95571 236,247.08373 Z"
       id="path46" /><path
       style="fill:#515156;fill-opacity:1"
       d="m 236,247.08373 2.90568,3.84924 0.57547,-5.26667 z"
       id="path47" /><path
       style="fill:#524f56;fill-opacity:1"
       d="m 238.90568,250.93297 -7.2526,28.06367 L 236,247.08373 Z"
       id="path48" /><path
       style="fill:#2a2b30;fill-opacity:1"
       d="m 224.69161,260.95571 6.96147,18.04093 L 236,247.08373 Z"
       id="path49" /><path
       style="fill:#212227;fill-opacity:1"
       d="m 246.63273,255.91045 -0.38657,2.96372 -5.24616,7.45737 -2.09432,-15.39857 0.57547,-5.26667 z"
       id="path50" /><path
       style="fill:#1f1f24;fill-opacity:1"
       d="M 246.24616,258.87417 243.05694,282.45904 241,266.33154 Z"
       id="path51" /><path
       style="fill:#1d1e25;fill-opacity:1"
       d="m 238.90568,250.93297 -7.2526,28.06367 L 241,266.33154 Z"
       id="path52" /><path
       style="fill:#272629;fill-opacity:1"
       d="m 241,266.33154 2.05694,16.1275 -3.57579,7.01592 -3.15461,-16.81087 z"
       id="path53" /><path
       style="fill:#2e2e30;fill-opacity:1"
       d="m 239.48115,289.47496 -5.82703,6.74257 -2.00104,-17.22089 4.67346,-6.33255 z"
       id="path54" /><path
       style="fill:#29282d;fill-opacity:1"
       d="m 243.05694,282.45904 1.64293,9.47605 -2.4229,6.10476 -2.79582,-8.56489 z"
       id="path55" /><path
       style="fill:#22252d;fill-opacity:1"
       d="m 242.27697,298.03985 -8.62285,-1.82232 5.82703,-6.74257 z"
       id="path56" /><path
       style="fill:#6e6d72;fill-opacity:1"
       d="m 256,256 v 23.63445 l -9.75384,-20.76028 z"
       id="path57" /><path
       style="fill:#595961;fill-opacity:1"
       d="m 256,279.63445 -12.94306,2.82459 3.18922,-23.58487 z"
       id="path58" /><path
       style="fill:#79787e;fill-opacity:1"
       d="m 256,279.63445 v 11.93617 l -11.30013,0.36447 -1.64293,-9.47605 z"
       id="path59" /><path
       style="fill:#0f0f13;fill-opacity:1"
       d="m 256,291.57062 v 7.65373 l -4.87692,-1.91343 -6.42321,-5.37583 z"
       id="path60" /><path
       style="fill:#020308;fill-opacity:1"
       d="m 244.69987,291.93509 6.42321,5.37583 0.5,2.36901 -9.34611,-1.64008 z"
       id="path61" /><path
       style="fill:#08080a;fill-opacity:1"
       d="m 256,299.22435 v 6.74257 l -3.33583,-2.64236 -1.04109,-3.64463 -0.5,-2.36901 z"
       id="path62" /><path
       style="fill:#1b1b21;fill-opacity:1"
       d="m 251.62308,299.67993 1.04109,3.64463 3.33583,2.64236 -12.37692,-6.28699 -1.34611,-1.64008 z"
       id="path63" /><path
       style="fill:#111119;fill-opacity:1"
       d="m 233.65412,296.21753 1.15135,10.84278 4.67568,1.82232 4.14193,-9.2027 -1.34611,-1.64008 z"
       id="path64" /><path
       style="fill:#07080c;fill-opacity:1"
       d="m 243.62308,299.67993 -4.14193,9.2027 L 256,305.96692 Z"
       id="path65" /><path
       style="fill:#1f1410;fill-opacity:1"
       d="m 256,305.96692 v 2.91571 l -13.72303,2.2779 -2.79582,-2.2779 z"
       id="path66" /><path
       style="fill:#05050a;fill-opacity:1"
       d="m 256,308.88263 v 4.64691 l -10.71621,0.27334 -3.00682,-2.64235 z"
       id="path67"
       sodipodi:nodetypes="ccccc" /><path
       style="fill:#251811;fill-opacity:1"
       d="m 245.28379,313.80288 -0.58392,1.64009 -9.8944,-8.38266 4.67568,1.82232 z"
       id="path68" /><path
       style="fill:#281a11;fill-opacity:1"
       d="m 256,313.52954 v 4.37356 l -11.30013,-2.46013 0.58392,-1.64009 z"
       id="path69" /><path
       style="fill:#1b1a18;fill-opacity:1"
       d="m 234.80547,307.06031 -5.46695,-10.29608 2.31456,-17.76759 z"
       id="path70" /><path
       style="fill:#1a171e;fill-opacity:1"
       d="m 231.65308,278.99664 -6.96147,-18.04093 -0.5024,13.48514 6.30659,13.43959 z"
       id="path71" /><path
       style="fill:#2a292b;fill-opacity:1"
       d="m 224.18921,274.44085 5.14931,22.32338 1.15728,-8.88379 z"
       id="path72" /><path
       style="fill:#09080d;fill-opacity:1"
       d="m 224.69161,260.95571 -12.31319,-12.11841 -6.36555,-5.37583 18.17634,30.97938 z"
       id="path74" /><path
       style="fill:#0a0b0f;fill-opacity:1"
       d="m 224.18921,274.44085 -12.81385,-6.62363 -5.36249,-24.35575 z"
       id="path75" /><path
       style="fill:#0e0d10;fill-opacity:1"
       d="m 211.37536,267.81722 15.3885,17.78532 -2.57465,-11.16169 z"
       id="path76" /><path
       style="display:inline;fill:#98754f;fill-opacity:1"
       d="m 201.27499,192.64155 2.18664,-5.67189 8.91679,-12.30063 L 214,180 Z"
       id="path77" /><path
       style="fill:#694e3b;fill-opacity:1"
       d="M 214,180 212.37842,174.66903 216.5823,155 H 220 Z"
       id="path78" /><path
       style="fill:#5f4434;fill-opacity:1"
       d="m 220,155 -4,-35 h -2 l 2.5823,35 z"
       id="path79" /><path
       style="fill:#503a2a;fill-opacity:1"
       d="m 216,120 -13,-39 11,39 z"
       id="path80" /><path
       style="fill:#3d2f26;fill-opacity:1"
       d="m 203,81 0.64386,26.24332 L 215,133.57579 214,120 Z"
       id="path81" /><path
       style="fill:#1b0e0c;fill-opacity:1"
       d="M 209.32193,120.40956 216,147.15205 215,133.57579 Z"
       id="path82" /><path
       style="fill:#6a462e;fill-opacity:1"
       d="m 203.64386,107.24332 -8.47377,13.94072 -3.91798,-2.36901 L 203,81 Z"
       id="path83" /><path
       style="fill:#27282d;fill-opacity:1"
       d="M 205.58216,62 203,81 202.27264,83.341277 198.35914,81 Z"
       id="path84" /><path
       style="fill:#1d2025;fill-opacity:1"
       d="M 202.27264,83.341277 191.25211,118.81503 187.97194,116.17267 198.35914,81 Z"
       id="path85" /><path
       style="fill:#24252a;fill-opacity:1"
       d="m 191.25211,118.81503 -9.02047,47.74469 5.7403,-50.38705 z"
       id="path86" /><path
       style="fill:#0f0f11;fill-opacity:1"
       d="m 191.25211,118.81503 -3.28017,45.64903 -5.7403,2.09566 z"
       id="path87" /><path
       style="fill:#7c5439;fill-opacity:1"
       d="m 195.17009,121.18404 -2.46013,41.27547 -4.73802,2.00455 3.28017,-45.64903 z"
       id="path88" /><path
       style="fill:#424144;fill-opacity:1"
       d="m 182.23164,166.55972 19.04335,26.08183 -13.30305,-28.17749 z"
       id="path89" /><path
       style="fill:#e9d2b2;fill-opacity:1"
       d="m 192.70996,162.45951 10.75167,24.51015 -2.18664,5.67189 -13.30305,-28.17749 z"
       id="path90" /><path
       style="fill:#735240;fill-opacity:1"
       d="m 203.46163,186.96966 4.45839,-6.15032 -12.74993,-19.36211 -2.46013,1.00228 z"
       id="path91" /><path
       style="fill:#a8856f;fill-opacity:1"
       d="M 207.92002,180.81934 195.17009,161.45723 208.83746,179.5 Z"
       id="path92" /><path
       style="fill:#584235;fill-opacity:1"
       d="m 195.17009,161.45723 3.73574,-38.35976 -3.73574,-1.91343 -2.46013,41.27547 z"
       id="path93" /><path
       style="fill:#81695a;fill-opacity:1"
       d="m 195.17009,161.45723 3.73574,-38.35976 1.40916,1.45786 z"
       id="path94" /><path
       style="fill:#3d291f;fill-opacity:1"
       d="m 198.90583,123.09747 4.73803,-15.85415 -8.47377,13.94072 z"
       id="path95" /><path
       style="fill:#796457;fill-opacity:1"
       d="m 200.31499,124.55533 3.32887,-14.30519 v -3.00682 l -4.73803,15.85415 z"
       id="path96" /><path
       style="fill:#574133;fill-opacity:1"
       d="m 203.64386,107.24332 5.67807,13.16624 L 216,147.15205 216.5823,155 l -8.83823,-33.81596 -4.10021,-10.9339 z"
       id="path97" /><path
       style="fill:#31241e;fill-opacity:1"
       d="M 200.31499,124.55533 216.5823,155 l -8.83823,-33.81596 -4.10021,-10.9339 z"
       id="path98" /><path
       style="fill:#392620;fill-opacity:1"
       d="m 216.5823,155 -4.20388,19.66903 -3.54096,4.83097 0.48447,-6.47106 L 215,156.44586 Z"
       id="path99" /><path
       style="fill:#3f2d23;fill-opacity:1"
       d="m 215,156.44586 -8.34932,-9.29381 -6.33569,-22.59672 L 216.5823,155 Z"
       id="path100" /><path
       style="fill:#2c231c;fill-opacity:1"
       d="m 206.65068,147.15205 -3.89384,11.75394 6.56509,14.12295 L 215,156.44586 Z"
       id="path101" /><path
       style="fill:#583e33;fill-opacity:1"
       d="m 209.32193,173.02894 -0.48447,6.47106 -13.66737,-18.04277 7.58675,-2.55124 z"
       id="path102" /><path
       style="fill:#271916;fill-opacity:1"
       d="m 202.75684,158.90599 3.89384,-11.75394 -6.33569,-22.59672 z"
       id="path103" /><path
       style="fill:#3f2b22;fill-opacity:1"
       d="m 195.17009,161.45723 7.58675,-2.55124 -2.44185,-34.35066 z"
       id="path104" /><path
       style="fill:#251b13;fill-opacity:1"
       d="m 182.23164,166.55972 10.47832,26.46841 8.56503,-0.38658 z"
       id="path73" /><path
       style="fill:#161211;fill-opacity:1"
       d="m 201.27499,192.64155 -3.93014,12.24144 -4.63489,-11.85486 z"
       id="path105" /><path
       style="fill:#3c2e26;fill-opacity:1"
       d="m 201.27499,192.64155 -3.93014,12.24144 5.41199,11.98372 z"
       id="path106" /><path
       style="fill:#2d2322;fill-opacity:1"
       d="M 197.34485,204.88299 179.36926,218 l 13.3407,-24.97187 z"
       id="path107" /><path
       style="fill:#212328;fill-opacity:1"
       d="m 179.36926,218 5.34758,22.44759 12.62801,-35.5646 z"
       id="path108" /><path
       style="fill:#040509;fill-opacity:1"
       d="m 184.71684,240.44759 15.334,3.54357 -2.70599,-39.10817 z"
       id="path109" /><path
       style="fill:#221c1c;fill-opacity:1"
       d="m 197.34485,204.88299 5.41199,11.98372 3.25603,26.59476 -7.19363,-17.26992 z"
       id="path110" /><path
       style="fill:#131215;fill-opacity:1"
       d="m 206.01287,243.46147 -5.96203,0.52969 -1.2316,-17.79961 z"
       id="path111" /><path
       style="fill:#252429;fill-opacity:1"
       d="M 184.71684,240.44759 163.64868,254.62188 179.36926,218 Z"
       id="path112" /><path
       style="fill:#483528;fill-opacity:1"
       d="m 163.64868,254.62188 0.32214,-9.471 L 179.36926,218 Z"
       id="path113" /><path
       style="fill:#69543f;fill-opacity:1"
       d="m 163.64868,254.62188 11.85487,10.37301 9.21329,-24.5473 z"
       id="path114" /><path
       style="fill:#181a1e;fill-opacity:1"
       d="m 184.71684,240.44759 9.59986,24.5473 h -18.81315 z"
       id="path115" /><path
       style="fill:#292421;fill-opacity:1"
       d="m 163.64868,254.62188 -19.71516,27.83316 20.0373,-37.30416 z"
       id="path116" /><path
       style="fill:#1e222b;fill-opacity:1"
       d="m 143.93352,282.45504 22.03459,4.31672 9.53544,-21.77687 -11.85487,-10.37301 z"
       id="path117" /><path
       style="fill:#0c0b11;fill-opacity:1"
       d="m 175.50355,264.99489 30.50932,25.77145 -40.04476,-3.99458 z"
       id="path118" /><path
       style="fill:#1f2024;fill-opacity:1"
       d="m 194.3167,264.99489 11.69617,25.77145 -30.50932,-25.77145 z"
       id="path119" /><path
       style="fill:#777578;fill-opacity:1"
       d="m 165.96811,286.77176 13.33672,20.81044 26.70804,-16.81586 z"
       id="path120" /><path
       style="fill:#20202a;fill-opacity:1"
       d="m 165.96811,286.77176 -10.69515,12.62801 24.03187,8.18243 z"
       id="path121" /><path
       style="fill:#312f34;fill-opacity:1"
       d="m 143.93352,282.45504 11.33944,16.94473 10.69515,-12.62801 z"
       id="path122" /><path
       style="fill:#5a595d;fill-opacity:1"
       d="m 179.30483,307.5822 6.31401,23.32316 16.88029,-0.451 3.51374,-39.68802 z"
       id="path123" /><path
       style="fill:#191a1f;fill-opacity:1"
       d="m 179.30483,307.5822 -5.863,24.48288 12.17701,-1.15972 z"
       id="path124" /><path
       style="fill:#14141a;fill-opacity:1"
       d="m 155.27296,299.39977 18.16887,32.66531 5.863,-24.48288 z"
       id="path125" /><path
       style="fill:#131315;fill-opacity:1"
       d="m 185.61884,330.90536 26.48016,43.74703 -9.59987,-44.19803 z"
       id="path126" /><path
       style="fill:#0b0a0f;fill-opacity:1"
       d="m 185.61884,330.90536 -1.41743,27.96202 -10.75958,-26.8023 z"
       id="path127" /><path
       style="fill:#09080e;fill-opacity:1"
       d="m 185.61884,330.90536 -1.41743,27.96202 27.89759,15.78501 z"
       id="path128" /><path
       style="fill:none"
       d="M 173.44183,332.06508 Z"
       id="path129" /><path
       style="fill:#211814;fill-opacity:1"
       d="m 173.44183,332.06508 -1.353,0.70871 11.40386,27.18888 0.70872,-1.09529 z"
       id="path130" /><path
       style="fill:#5d432c;fill-opacity:1"
       d="m 172.08883,332.77379 -17.65344,-28.92845 0.83757,-4.44557 18.16887,32.66531 z"
       id="path131" /><path
       style="fill:#2a1d14;fill-opacity:1"
       d="m 143.93352,282.45504 6.70058,14.72194 3.80129,6.66836 0.83757,-4.44557 z"
       id="path132" /><path
       style="fill:#472d1c;fill-opacity:1"
       d="m 150.6341,297.17698 -33.24516,16.84809 28.53685,-27.1928 z"
       id="path133" /><path
       style="fill:#7f5e39;fill-opacity:1"
       d="m 150.6341,297.17698 -33.24516,16.84809 25.06273,8.69786 11.98372,-18.87759 z"
       id="path134" /><path
       style="fill:#fce9bf;fill-opacity:1"
       d="m 154.43539,303.84534 -11.98372,18.87759 29.63716,10.05086 z"
       id="path135" /><path
       style="fill:#2f1d14;fill-opacity:1"
       d="m 117.38894,314.02507 31.95659,28.54187 -6.89386,-19.84401 z"
       id="path136" /><path
       style="fill:#463525;fill-opacity:1"
       d="m 142.45167,322.72293 6.89386,19.84401 22.7433,-9.79315 z"
       id="path137" /><path
       style="fill:#584631;fill-opacity:1"
       d="m 149.34553,342.56694 22.7433,-9.79315 11.40386,27.18888 z"
       id="path138" /><path
       style="fill:#5c3016;fill-opacity:1"
       d="m 149.34553,342.56694 41.55645,37.94846 -7.40929,-20.55273 z"
       id="path139" /><path
       style="fill:#1e1a18;fill-opacity:1"
       d="M 183.49269,359.96267 212.099,374.65239 184.20141,358.86738 Z"
       id="path140" /><path
       style="fill:#2a180f;fill-opacity:1"
       d="m 190.90198,380.5154 14.27969,-9.41515 -21.68898,-11.13758 z"
       id="path141" /><path
       style="fill:#34251a;fill-opacity:1"
       d="m 202.49913,330.45436 9.59987,2.57715 v 41.62088 z"
       id="path142" /><path
       style="fill:#311f16;fill-opacity:1"
       d="m 212.099,333.03151 -9.59987,-2.57715 9.2133,-17.91115 z"
       id="path143" /><path
       style="fill:#050508;fill-opacity:1"
       d="m 202.49913,330.45436 9.2133,-17.91115 -6.94002,-7.76573 z"
       id="path144" /><path
       style="fill:#342113;fill-opacity:1"
       d="m 211.71243,312.54321 v -6.57629 l 15.46286,17.52915 -1.41743,3.28586 z"
       id="path145" /><path
       style="fill:#a4845d;fill-opacity:1"
       d="m 225.75786,326.78193 -12.04815,13.46558 H 212.099 l -0.38657,-27.7043 z"
       id="path146" /><path
       style="fill:#23160d;fill-opacity:1"
       d="m 225.75786,326.78193 13.72329,9.34215 5.80264,-1.353 -18.1085,-11.27501 z"
       id="path147" /><path
       style="fill:#634b31;fill-opacity:1"
       d="m 239.48115,336.12408 -6.314,11.72601 -19.45744,-7.60258 12.04815,-13.46558 z"
       id="path148" /><path
       style="fill:#5f3616;fill-opacity:1"
       d="m 233.16715,347.85009 2.35367,3.86571 9.76297,-16.94472 -5.80264,1.353 z"
       id="path149" /><path
       style="fill:#020202;fill-opacity:1"
       d="m 212.099,340.24751 h 1.61071 l -1.61071,3.86572 z"
       id="path150" /><path
       style="fill:#5d3116;fill-opacity:1"
       d="m 212.099,344.11323 23.42182,7.60257 -2.35367,-3.86571 -19.45744,-7.60258 z"
       id="path151" /><path
       style="fill:#90663b;fill-opacity:1"
       d="m 235.52082,351.7158 -2.74024,4.31672 -20.68158,-7.79586 v -4.12343 z"
       id="path152" /><path
       style="fill:#3b2417;fill-opacity:1"
       d="M 232.78058,356.03252 212.099,369.4981 v -21.26144 z"
       id="path153" /><path
       style="fill:#5e4833;fill-opacity:1"
       d="m 232.78058,356.03252 5.66972,12.30587 -7.40929,9.53543 -18.94201,-8.37572 z"
       id="path154" /><path
       style="fill:#452915;fill-opacity:1"
       d="m 212.099,369.4981 v 5.15429 l 20.16615,8.50458 -1.22414,-5.28315 z"
       id="path155" /><path
       style="fill:#502d11;fill-opacity:1"
       d="m 231.04101,377.87382 1.22414,5.28315 11.98373,-14.49644 -5.79858,-0.32214 z"
       id="path156" /><path
       style="fill:#9d713f;fill-opacity:1"
       d="m 232.78058,356.03252 5.66972,12.30587 5.79858,0.32214 -8.72806,-16.94473 z"
       id="path157" /><path
       style="fill:#9a7c58;fill-opacity:1"
       d="m 245.28379,334.77108 2.63752,4.57443 -7.15158,12.8213 -5.24891,-0.45101 z"
       id="path158" /><path
       style="fill:#60391c;fill-opacity:1"
       d="m 247.92131,364.47267 -3.67243,4.18786 -8.72806,-16.94473 5.24891,0.45101 z"
       id="path161" /><path
       style="fill:#977d5c;fill-opacity:1"
       d="m 246.89045,374.65239 -7.92472,10.69515 -6.70058,-2.19057 11.98373,-14.49644 z"
       id="path164" /><path
       style="fill:#3b281b;fill-opacity:1"
       d="m 238.96573,385.34754 7.08715,13.78772 -2.83486,4.31672 -10.95287,-20.29501 z"
       id="path165" /><path
       style="fill:#040507;fill-opacity:1"
       d="M 256.61917,334.77108 256,317.9031 245.28379,334.77108 Z"
       id="path168" /><path
       style="fill:#070708;fill-opacity:1"
       d="M 245.28379,334.77108 227.17529,323.49607 256,317.9031 Z"
       id="path169" /><path
       style="fill:#0f0e13;fill-opacity:1"
       d="m 206.01287,290.76634 c 0,0 -11.69617,-25.77145 -11.69617,-25.77145 l -9.59986,-24.5473 15.334,3.54357 z"
       id="path170" /><path
       style="fill:#010206;fill-opacity:1"
       d="m 200.05084,243.99116 5.96203,-0.52969 5.36249,24.35575 -5.36249,22.94912 z"
       id="path171" /><path
       style="fill:#020207;fill-opacity:1"
       d="m 211.37536,267.81722 0.33707,38.1497 v 6.57629 l -6.94002,-7.76573 1.24046,-14.01114 z"
       id="path172" /><path
       style="fill:#020307;fill-opacity:1"
       d="m 211.37536,267.81722 15.3885,17.78532 -15.05143,20.36438 z"
       id="path173" /><path
       style="fill:#010206;fill-opacity:1"
       d="m 226.76386,285.60254 0.41143,37.89353 -15.46286,-17.52915 z"
       id="path174" /><path
       style="fill:#0e0d12;fill-opacity:1"
       d="m 256,317.9031 -28.82471,5.59297 -0.41143,-37.89353 2.57466,11.16169 5.46695,10.29608 9.8944,8.38266 z"
       id="path175" /><g
       inkscape:groupmode="layer"
       id="layer3"
       inkscape:label="left-wing"
       style="display:inline"><path
         style="fill:#d0b089;fill-opacity:1"
         d="m 190.59446,196.98804 -44.35357,-31.06613 2.46013,4.00909 40.82792,29.05153 z"
         id="path176" /><path
         style="fill:#ecd0a4;fill-opacity:1"
         d="m 148.70102,169.931 19.71665,27.79033 -1.03791,1.2612 -22.64088,-32.11242 z"
         id="path177" /><path
         style="fill:#4b2c17;fill-opacity:1"
         d="m 150.41077,172.34087 -1.70975,-2.40987 40.82792,29.05153 -0.68605,1.28419 z"
         id="path178" /><path
         style="fill:#e8c897;fill-opacity:1"
         d="m 168.41767,197.72133 17.62194,7.79274 -0.71071,1.33034 -17.94914,-7.86188 z"
         id="path179" /><path
         style="fill:#4d3b2b;fill-opacity:1"
         d="m 186.03961,205.51407 0.69095,-1.29336 -29.67563,-27.052 11.36274,20.55262 z"
         id="path180" /><path
         style="fill:#734c2b;fill-opacity:1"
         d="m 186.73056,204.22071 2.11233,-3.95399 -31.78796,-23.09801 z"
         id="path181" /><path
         style="fill:#634b2f;fill-opacity:1"
         d="m 168.41767,197.72133 -11.36274,-20.55262 -6.64416,-4.82784 z"
         id="path182" /><path
         style="fill:#dadbba;fill-opacity:1"
         d="m 144.73888,166.87011 -10.84418,-8.00968 1.27562,-1.13895 11.07057,8.20043 2.46013,4.00909 z"
         id="path183" /><path
         style="fill:#a68059;fill-opacity:1"
         d="m 133.8947,158.86043 -5.28472,4.69247 1.18451,0.63781 5.02269,-4.64892 z"
         id="path184" /><path
         style="fill:#62422f;fill-opacity:1"
         d="m 134.81718,159.54179 v 2.5077 l -3.88375,3.05238 -1.13894,-0.91116 z"
         id="path185" /><path
         style="fill:#593a25;fill-opacity:1"
         d="m 134.81718,159.54179 v 2.5077 l 8.82691,6.15031 1.09479,-1.32969 z"
         id="path186" /><path
         style="fill:#765135;fill-opacity:1"
         d="m 144.73888,166.87011 -1.09479,1.32969 2.87015,3.1435 5.23916,8.92935 3.44646,1.43467 z"
         id="path187" /><path
         style="fill:#504742;fill-opacity:1"
         d="m 151.7534,180.27265 -13.39403,-4.64691 -7.42594,-10.52387 3.88375,-3.05238 8.82691,6.15031 2.87015,3.1435 z"
         id="path188" /><path
         style="fill:#feeccb;fill-opacity:1"
         d="m 138.35937,175.62574 -0.8656,1.09339 16.44641,5.73309 -2.18678,-2.17957 z"
         id="path189" /><path
         style="fill:#74502f;fill-opacity:1"
         d="m 153.94018,182.45222 -2.18678,-2.17957 3.44646,1.43467 z"
         id="path190" /><path
         style="fill:#4d2d15;fill-opacity:1"
         d="m 153.94018,182.45222 v 1.60174 l -16.44641,-5.83142 v -1.50341 z"
         id="path191" /><path
         style="fill:#f0dfc0;fill-opacity:1"
         d="m 137.49377,176.71913 -8.20042,-11.61726 -0.68337,-1.54897 1.18451,0.63781 1.13894,0.91116 7.42594,10.52387 z"
         id="path192" /><path
         style="fill:#644830;fill-opacity:1"
         d="m 135.39811,175.85353 2.09566,0.8656 -8.20042,-11.61726 -0.27335,1.32118 z"
         id="path193" /><path
         style="fill:#644933;fill-opacity:1"
         d="m 129.02,166.42305 -9.61272,-2.23234 -0.13667,-1.86888 10.02274,2.78004 z"
         id="path194" /><path
         style="fill:#f7e8d1;fill-opacity:1"
         d="m 129.29335,165.10187 -10.02274,-2.78004 -1.00228,-1.27462 10.34165,2.50569 z"
         id="path195" /><path
         style="fill:#8d7e75;fill-opacity:1"
         d="m 128.60998,163.5529 -4.328,-6.87925 8.27754,3.37233 z"
         id="path196" /><path
         style="fill:#7c573c;fill-opacity:1"
         d="m 132.55952,160.04598 -8.27754,-3.37233 -21.09331,-10.11385 0.54669,-1.86788 30.15934,14.16851 z"
         id="path197" /><path
         style="fill:#d6c8b7;fill-opacity:1"
         d="m 103.73536,144.69192 -0.13667,-1.1845 31.33805,14.42261 -1.04204,0.9304 z"
         id="path198" /><path
         style="fill:#a68b6e;fill-opacity:1"
         d="m 103.73536,144.69192 -17.995373,-1.1845 -1.776759,-1.23007 19.635462,1.23007 z"
         id="path199" /><path
         style="fill:#6f4d33;fill-opacity:1"
         d="m 103.73536,144.69192 -0.54669,1.86788 -14.760767,-1.36674 -2.687916,-1.68564 z"
         id="path200" /><path
         style="fill:#e6d5c2;fill-opacity:1"
         d="m 83.963228,142.27735 1.776759,1.23007 c 0,0 2.687916,1.68564 2.687916,1.68564 l 14.396297,10.29609 -0.77448,1.1845 -17.494239,-12.84733 z"
         id="path202" /><path
         style="fill:#e7d5bd;fill-opacity:1"
         d="m 102.8242,155.48915 15.44413,5.55806 1.00228,1.27462 -17.22089,-5.64818 z"
         id="path203" /><path
         style="fill:#775337;fill-opacity:1"
         d="m 119.27061,162.32183 -8.61044,7.81419 h 2.27789 l 6.46922,-5.94531 z"
         id="path204" /><path
         style="fill:#4c4a4e;fill-opacity:1"
         d="m 128.60998,163.5529 -10.34165,-2.50569 -15.44413,-5.55806 23.62178,4.62412 z"
         id="path205" /><path
         style="fill:#686465;fill-opacity:1"
         d="m 126.44598,160.11327 -2.164,-3.43962 -21.09331,-10.11385 -0.36447,8.92935 z"
         id="path206" /><path
         style="fill:#706c6b;fill-opacity:1"
         d="M 102.8242,155.48915 88.427903,145.19306 103.18867,146.5598 Z"
         id="path207" /><path
         style="fill:#45423d;fill-opacity:1"
         d="m 112.93806,170.13602 14.82388,7.68696 7.63617,-1.96945 -6.37811,-9.43048 -9.61272,-2.23234 z"
         id="path208" /><path
         style="fill:#f8e9c8;fill-opacity:1"
         d="m 110.66017,170.13602 17.23063,9.29767 -0.12886,-1.61071 -14.82388,-7.68696 z"
         id="path209" /><path
         style="fill:#d7c1a7;fill-opacity:1"
         d="m 127.8908,179.43369 9.60297,-2.71456 -2.09566,-0.8656 -7.63617,1.96945 z"
         id="path210" /><path
         style="fill:#f7e2bf;fill-opacity:1"
         d="m 127.8908,179.43369 7.50731,9.34215 1.12612,-1.09529 -6.72974,-7.4079 z"
         id="path211" /><path
         style="fill:#6f5037;fill-opacity:1"
         d="m 129.79449,180.27265 7.69928,-2.05011 v -1.50341 l -9.60297,2.71456 z"
         id="path212" /><path
         style="fill:#faecc8;fill-opacity:1"
         d="m 136.52423,187.68055 -1.12612,1.09529 31.98165,10.20669 -4.11765,-2.53969 z"
         id="path213" /><path
         style="fill:#704a2a;fill-opacity:1"
         d="m 163.26211,196.44284 -9.32193,-12.38888 v -1.60174 l 1.25968,-0.7449 12.1799,17.27521 z"
         id="path214" /><path
         style="fill:#433c37;fill-opacity:1"
         d="m 163.26211,196.44284 -25.76834,-18.2203 16.44641,5.83142 z"
         id="path215" /><path
         style="fill:#433e3b;fill-opacity:1"
         d="m 163.26211,196.44284 -33.46762,-16.17019 7.69928,-2.05011 z"
         id="path216" /><path
         style="fill:#534b48;fill-opacity:1"
         d="m 163.26211,196.44284 -26.73788,-8.76229 -6.72974,-7.4079 z"
         id="path217" /><path
         style="fill:#a68363;fill-opacity:1"
         d="m 110.66017,170.13602 -1.64695,-1.20419 8.66941,-7.13083 1.58798,0.52083 z"
         id="path218" /><path
         style="fill:#4e3522;fill-opacity:1"
         d="m 110.66017,170.13602 -0.22953,1.79174 16.6548,8.34489 0.80536,-0.83896 z"
         id="path219" /><path
         style="fill:#5f503f;fill-opacity:1"
         d="m 115.98361,163.19849 -13.15941,-5.1551 -4.828278,10.59851 11.017298,0.28993 z"
         id="path220" /><path
         style="fill:#503321;fill-opacity:1"
         d="m 115.98361,163.19849 1.69902,-1.39749 -15.63291,-5.12735 0.77448,1.36974 z"
         id="path221" /><path
         style="fill:#916e4e;fill-opacity:1"
         d="m 102.04972,156.67365 0.77448,1.36974 -4.828278,10.59851 -2.480501,0.0966 z"
         id="path222" /><path
         style="fill:#8e765e;fill-opacity:1"
         d="m 102.04972,156.67365 -1.95987,-0.43426 -5.352177,12.14479 0.777748,0.35432 z"
         id="path223" /><path
         style="fill:#382e24;fill-opacity:1"
         d="m 100.08985,156.23939 -15.49508,-10.82401 -0.03929,-1.58906 17.49424,12.84733 z"
         id="path224" /><path
         style="fill:#705037;fill-opacity:1"
         d="m 84.555481,143.82632 -12.878648,5.84135 1.19193,1.06307 11.726007,-5.31536 z"
         id="path225" /><path
         style="fill:#c1a488;fill-opacity:1"
         d="m 71.676833,149.66767 -0.708714,-0.54764 12.995109,-6.84268 0.592253,1.54897 z"
         id="path226" /><path
         style="fill:#f1d7b8;fill-opacity:1"
         d="m 72.868763,150.73074 3.060359,18.00776 -0.805358,0.5799 -3.446931,-19.65073 z"
         id="path227" /><path
         style="fill:#a9957e;fill-opacity:1"
         d="m 71.676833,149.66767 -0.708714,-0.54764 3.350288,20.19837 h 0.805357 z"
         id="path228" /><path
         style="fill:#9d7f62;fill-opacity:1"
         d="m 75.929122,168.7385 18.808551,-0.35432 0.777748,0.35432 -20.391657,0.5799 z"
         id="path229" /><path
         style="fill:#9d8165;fill-opacity:1"
         d="m 75.929122,168.7385 -3.060359,-18.00776 1.383882,-0.62731 2.44962,2.49574 0.475779,16.1158 z"
         id="path230" /><path
         style="fill:#b2906a;fill-opacity:1"
         d="m 76.702265,152.59917 3.661888,2.88998 -0.136673,10.47936 -3.049436,2.74646 z"
         id="path231" /><path
         style="fill:#8b725c;fill-opacity:1"
         d="m 80.22748,165.96851 -3.049436,2.74646 3.073534,-0.0579 z"
         id="path232" /><path
         style="fill:#72655c;fill-opacity:1"
         d="m 80.364153,155.48915 6.423666,5.42139 -6.560339,5.05797 z"
         id="path233" /><path
         style="fill:#5c5250;fill-opacity:1"
         d="m 86.787819,160.91054 7.949854,7.47364 -14.486095,0.27289 -0.0241,-2.68856 z"
         id="path234" /><path
         style="fill:#534a41;fill-opacity:1"
         d="m 86.787819,160.91054 7.949854,7.47364 5.352177,-12.14479 -1.172605,-0.81912 z"
         id="path235" /><path
         style="fill:#8b7b6c;fill-opacity:1"
         d="m 74.252645,150.10343 6.111508,1.08049 v 4.30523 l -3.661888,-2.88998 z"
         id="path236" /><path
         style="fill:#9b856d;fill-opacity:1"
         d="m 80.364153,151.18392 6.207745,-4.38743 -1.977128,-1.38111 -10.342125,4.68805 z"
         id="path237" /><path
         style="fill:#6a6766;fill-opacity:1"
         d="m 80.364153,151.18392 18.553092,4.23635 -12.345347,-8.62378 z"
         id="path238" /><path
         style="fill:#535057;fill-opacity:1"
         d="m 80.364153,151.18392 v 4.30523 l 6.423666,5.42139 12.129426,-5.49027 z"
         id="path239" /><path
         style="fill:#a88b6f;fill-opacity:1"
         d="m 97.995922,168.6419 -0.775342,1.24355 13.43959,0.25057 -1.64695,-1.20419 z"
         id="path240" /><path
         style="fill:#a68b77;fill-opacity:1"
         d="m 97.22058,169.88545 -22.967935,0.25057 0.06576,-0.81762 21.197014,-0.5799 2.480501,-0.0966 z"
         id="path241" /><path
         style="fill:#463428;fill-opacity:1"
         d="M 74.252645,170.13602 90.25022,196.81017 91.844747,195.8079 75.068571,170.12712 Z"
         id="path242" /><path
         style="fill:#c9baa1;fill-opacity:1"
         d="m 75.705857,170.13602 16.13889,24.57849 v 1.09339 L 75.068571,170.12712 Z"
         id="path243" /><path
         style="fill:#423225;fill-opacity:1"
         d="m 75.705857,170.13602 21.514723,-0.25057 -0.728927,1.54897 -20.029758,-0.147 z"
         id="path244" /><path
         style="fill:#5b5350;fill-opacity:1"
         d="m 76.461895,171.28742 16.06622,10.5342 3.963538,-10.3872 z"
         id="path245" /><path
         style="fill:#6a625a;fill-opacity:1"
         d="M 92.528115,181.82162 91.844747,194.71451 76.461895,171.28742 Z"
         id="path246" /><path
         style="fill:#5a544f;fill-opacity:1"
         d="m 92.528115,181.82162 -0.683368,12.89289 12.095623,-5.93867 z"
         id="path247" /><path
         style="fill:#423b38;fill-opacity:1"
         d="m 92.528115,181.82162 3.963538,-10.3872 7.448717,17.34142 z"
         id="path248" /><path
         style="fill:#4e351e;fill-opacity:1"
         d="m 96.491653,171.43442 0.728927,-1.54897 8.06375,18.89039 h -1.34396 z"
         id="path249" /><path
         style="fill:#553821;fill-opacity:1"
         d="m 97.22058,169.88545 2.86927,1.95899 10.34079,0.0833 0.22953,-1.79174 z"
         id="path250" /><path
         style="fill:#eacb9b;fill-opacity:1"
         d="m 97.22058,169.88545 8.06375,18.89039 1.70544,-0.50778 -6.89992,-16.42362 z"
         id="path251" /><path
         style="fill:#98816c;fill-opacity:1"
         d="m 91.844747,195.8079 13.439583,-7.03206 h -1.34396 l -12.095623,5.93867 z"
         id="path252" /><path
         style="fill:#463327;fill-opacity:1"
         d="m 105.28433,188.77584 0.82004,1.01841 -12.528423,6.65146 -1.7312,-0.63781 z"
         id="path253" /><path
         style="fill:#d2c1ac;fill-opacity:1"
         d="m 93.575947,196.44571 19.362113,12.48287 v 1.00227 L 91.844747,195.8079 Z"
         id="path254" /><path
         style="fill:#44332b;fill-opacity:1"
         d="m 91.844747,195.8079 -1.594527,1.00227 21.18443,13.94072 1.50341,-0.82004 z"
         id="path255" /><path
         style="fill:#5a5250;fill-opacity:1"
         d="m 93.575947,196.44571 12.528423,-6.65146 5.7403,13.48514 1.09339,5.64919 z"
         id="path256" /><path
         style="fill:#d2b89a;fill-opacity:1"
         d="m 105.28433,188.77584 25.6491,7.667 -0.41002,-1.72833 -23.53364,-6.44645 z"
         id="path257" /><path
         style="fill:#44332a;fill-opacity:1"
         d="m 106.10437,189.79425 23.46233,7.92708 1.36673,-1.27849 -25.6491,-7.667 z"
         id="path258" /><path
         style="fill:#56514c;fill-opacity:1"
         d="m 106.10437,189.79425 5.7403,13.48514 17.72203,-5.55806 z"
         id="path259" /><path
         style="fill:#5f5653;fill-opacity:1"
         d="m 129.5667,197.72133 1.36673,8.51933 -17.99537,2.68792 -1.09339,-5.64919 z"
         id="path260" /><path
         style="fill:#5f4a35;fill-opacity:1"
         d="m 129.5667,197.72133 1.36673,-1.27849 2.32345,9.75226 -2.32345,0.0456 z"
         id="path261" /><path
         style="fill:#8c7a6b;fill-opacity:1"
         d="m 112.93806,208.92858 v 1.00227 l 20.31882,-3.73575 -2.32345,0.0456 z"
         id="path262" /><path
         style="fill:#9b8068;fill-opacity:1"
         d="m 130.52341,194.71451 3.64463,-5.1936 1.23007,-0.74507 -4.46468,7.667 z"
         id="path263" /><path
         style="fill:#906845;fill-opacity:1"
         d="m 134.16804,189.52091 -7.0826,-9.24826 0.80536,-0.83896 7.50731,9.34215 z"
         id="path264" /><path
         style="fill:#483c32;fill-opacity:1"
         d="m 132.34573,192.11771 -21.91509,-20.18995 16.6548,8.34489 7.0826,9.24826 z"
         id="path265" /><path
         style="fill:#5d4833;fill-opacity:1"
         d="m 130.52341,194.71451 1.82232,-2.5968 -21.91509,-20.18995 -10.34079,-0.0833 6.89992,16.42362 z"
         id="path266" /><path
         style="fill:#704d30;fill-opacity:1"
         d="m 130.93343,196.44284 h 1.11301 l 4.2845,-6.15293 -0.93283,-1.51407 z"
         id="path201" /><path
         style="fill:#dabb89;fill-opacity:1"
         d="m 132.04644,196.44284 1.21044,9.75226 -2.32345,-9.75226 z"
         id="path267" /><path
         style="fill:#e6c18c;fill-opacity:1"
         d="m 132.04644,196.44284 1.21044,0.6765 1.75328,8.44015 -1.75328,0.63561 z"
         id="path268" /><path
         style="fill:#654327;fill-opacity:1"
         d="m 132.04644,196.44284 1.21044,0.6765 3.65392,-5.57307 -0.57986,-1.25636 z"
         id="path269" /><path
         style="fill:#43250b;fill-opacity:1"
         d="m 136.33094,190.28991 31.04882,8.69262 -31.98165,-10.20669 z"
         id="path270" /><path
         style="fill:#694128;fill-opacity:1"
         d="m 136.33094,190.28991 0.57986,1.25636 29.66938,10.11529 0.79958,-2.67903 z"
         id="path271" /><path
         style="fill:#522c11;fill-opacity:1"
         d="m 167.37976,198.98253 17.94914,7.86188 -1.15239,2.1571 -17.59633,-7.33995 z"
         id="path272" /><path
         style="fill:#4b3425;fill-opacity:1"
         d="m 166.58018,201.66156 -1.03086,3.67243 17.53153,5.71844 1.09566,-2.05092 z"
         id="path273" /><path
         style="fill:#f9d9b2;fill-opacity:1"
         d="m 165.54932,205.33399 -0.2255,1.023 17.24625,5.65155 0.51078,-0.95611 z"
         id="path274" /><path
         style="fill:#8a6142;fill-opacity:1"
         d="m 165.32382,206.35699 v 1.87629 l 16.31583,5.51687 0.93042,-1.74161 z"
         id="path275" /><path
         style="fill:#e1c59f;fill-opacity:1"
         d="m 135.01016,205.55949 30.53916,-0.2255 -0.2255,1.023 -32.06694,0.71657 v -0.87846 z"
         id="path276" /><path
         style="fill:#fce5c5;fill-opacity:1"
         d="m 133.25688,207.07356 17.82822,5.863 28.28416,5.06344 1.23819,-2.31771 -28.4915,-4.32423 -16.84045,-4.32961 z"
         id="path277" /><path
         style="fill:#635142;fill-opacity:1"
         d="m 180.60745,215.68229 1.0322,-1.93214 -16.31583,-5.51687 -25.8013,-0.11294 12.59343,3.23772 z"
         id="path278" /><path
         style="fill:#412a1c;fill-opacity:1"
         d="m 165.32382,208.23328 v -1.87629 l -30.04832,0.67146 4.24702,1.09189 z"
         id="path279" /><path
         style="fill:#2e2017;fill-opacity:1"
         d="m 166.58018,201.66156 -1.03086,0.62131 -0.80536,3.05112 h 0.80536 z"
         id="path280" /><path
         style="fill:#26180d;fill-opacity:1"
         d="m 165.54932,202.28287 -28.63852,-10.7366 29.66938,10.11529 z"
         id="path281" /><path
         style="fill:#544435;fill-opacity:1"
         d="m 165.54932,202.28287 -0.80536,3.05112 -29.7338,0.2255 -1.75328,-8.44015 3.65392,-5.57307 z"
         id="path282" /><path
         style="fill:#a68f7b;fill-opacity:1"
         d="m 112.93806,209.93085 20.31882,-2.85729 v -0.87846 z"
         id="path283" /><path
         style="fill:#563f30;fill-opacity:1"
         d="m 112.93806,209.93085 -1.50341,0.82004 1.50341,0.70382 z"
         id="path284" /><path
         style="fill:#523826;fill-opacity:1"
         d="m 112.93806,211.45471 20.78353,-2.19058 -0.46471,-2.19057 -20.31882,2.85729 z"
         id="path285" /><path
         style="fill:#6d482d;fill-opacity:1"
         d="m 133.72159,209.26413 15.68151,5.15429 c 0,0 1.682,-1.48186 1.682,-1.48186 l -17.82822,-5.863 z"
         id="path286" /><path
         style="fill:#a8896f;fill-opacity:1"
         d="m 149.4031,214.41842 -16.42244,5.79858 -0.0967,1.22414 17.41565,-6.66836 z"
         id="path287" /><path
         style="fill:#bea68d;fill-opacity:1"
         d="m 132.88396,221.44114 -23.74189,-1.70736 1.25636,-1.25635 22.58223,1.73957 z"
         id="path288" /><path
         style="fill:#846c53;fill-opacity:1"
         d="m 110.39843,218.47743 -2.83486,-0.2255 -0.70872,1.48185 h 2.28722 z"
         id="path289" /><path
         style="fill:#6e5844;fill-opacity:1"
         d="m 107.56357,218.25193 3.87108,-7.50104 1.50341,0.70382 -3.95706,6.90997 z"
         id="path290" /><path
         style="fill:#7a624b;fill-opacity:1"
         d="m 110.39843,218.47743 3.94509,-7.17086 -1.40546,0.14814 -3.95706,6.90997 z"
         id="path291" /><path
         style="fill:#413c3f;fill-opacity:1"
         d="m 114.34352,211.30657 35.05958,3.11185 -16.42244,5.79858 -22.58223,-1.73957 z"
         id="path292" /><path
         style="fill:#352b29;fill-opacity:1"
         d="m 114.34352,211.30657 19.37807,-2.04244 15.68151,5.15429 z"
         id="path293" /><path
         style="fill:#392b23;fill-opacity:1"
         d="m 106.85485,219.73378 19.00644,18.87759 c 0,0 0.48322,-1.15972 0.38658,-1.353 -0.0967,-0.19329 -18.24941,-17.52459 -18.24941,-17.52459 z"
         id="path294" /><path
         style="fill:#ecd4bc;fill-opacity:1"
         d="m 109.14207,219.73378 17.11858,16.52594 -0.0128,0.99865 -18.24941,-17.52459 z"
         id="path295" /><path
         style="fill:#3c2718;fill-opacity:1"
         d="m 132.88396,221.44114 -0.3543,1.48186 c 0,0 -21.89157,-1.745 -21.92608,-1.7783 -0.0345,-0.0333 -1.46151,-1.41092 -1.46151,-1.41092 z"
         id="path296" /><path
         style="fill:#937051;fill-opacity:1"
         d="m 126.26065,236.25972 14.8058,-8.66565 h 0.80536 l -15.62394,9.6643 z"
         id="path297" /><path
         style="fill:#573a1e;fill-opacity:1"
         d="m 141.06645,227.59407 -8.53679,-4.67107 0.3543,-1.48186 8.98785,6.15293 z"
         id="path298" /><path
         style="fill:#614025;fill-opacity:1"
         d="m 132.88396,221.44114 2.86713,0.77315 16.49372,-6.86165 -1.9452,-0.57986 z"
         id="path299" /><path
         style="fill:#f5dfb6;fill-opacity:1"
         d="m 135.75109,222.21429 7.05493,3.89793 -0.93421,1.48185 -8.98785,-6.15293 z"
         id="path300" /><path
         style="fill:#564b46;fill-opacity:1"
         d="m 142.80602,226.11222 2.68255,-7.94888 -9.73748,4.05095 z"
         id="path301" /><path
         style="fill:#342e2a;fill-opacity:1"
         d="m 142.80602,226.11222 9.43879,-10.75958 -6.75624,2.8107 z"
         id="path302" /><path
         style="fill:#6e421f;fill-opacity:1"
         d="m 149.4031,214.41842 0.89651,0.35436 1.9452,0.57986 26.05488,4.53324 L 179.36926,218 151.0851,212.93656 Z"
         id="path303" /><path
         style="fill:#44392e;fill-opacity:1"
         d="m 142.80602,226.11222 35.49367,-6.22634 -26.05488,-4.53324 z"
         id="path304" /><path
         style="fill:#3f2e21;fill-opacity:1"
         d="m 142.80602,226.11222 21.74466,2.57714 11.03815,-4.02361 2.71086,-4.77987 z"
         id="path305" /><path
         style="fill:#b68c5c;fill-opacity:1"
         d="m 175.58883,224.66575 -11.03815,4.02361 -0.32215,1.96507 9.87292,-3.36611 z"
         id="path306" /><path
         style="fill:#fdebc8;fill-opacity:1"
         d="m 141.87181,227.59407 22.35672,3.06036 0.32215,-1.96507 -21.74466,-2.57714 z"
         id="path307" /><path
         style="fill:#402416;fill-opacity:1"
         d="m 164.22853,230.65443 1.28858,1.38522 7.38932,-2.64425 1.19502,-2.10708 z"
         id="path308" /><path
         style="fill:#3a2216;fill-opacity:1"
         d="m 164.22853,230.65443 -11.01728,14.49645 1.90063,-1.15972 10.40523,-11.95151 z"
         id="path309" /><path
         style="fill:#ad9070;fill-opacity:1"
         d="m 155.11188,243.99116 11.0703,-2.73941 -0.93525,1.64906 -12.03568,2.25007 z"
         id="path310" /><path
         style="fill:#423b35;fill-opacity:1"
         d="m 166.18218,241.25175 6.72425,-11.85635 -7.38932,2.64425 -10.40523,11.95151 z"
         id="path311" /><path
         style="fill:#664c37;fill-opacity:1"
         d="m 153.21125,245.15088 -0.96644,-1.15972 9.88979,-12.62801 2.09393,-0.70872 z"
         id="path312" /><path
         style="fill:#5a3926;fill-opacity:1"
         d="m 141.87181,227.59407 1.15971,1.35301 19.10308,2.41607 2.09393,-0.70872 z"
         id="path313" /><path
         style="fill:#4b301b;fill-opacity:1"
         d="m 143.03152,228.94708 -14.27094,8.118 -2.51271,0.19329 15.62394,-9.6643 z"
         id="path314" /><path
         style="fill:#f3dcbd;fill-opacity:1"
         d="m 126.24785,237.25837 26.9634,7.89251 -0.96644,-1.15972 -23.48423,-6.92608 z"
         id="path315" /><path
         style="fill:#4a4643;fill-opacity:1"
         d="m 128.76058,237.06508 23.48423,6.92608 -6.66468,-14.72174 -2.54861,-0.32234 z"
         id="path316" /><path
         style="fill:#47413f;fill-opacity:1"
         d="m 162.1346,231.36315 -9.88979,12.62801 -6.66468,-14.72174 z"
         id="path317" /><path
         style="fill:#424242;fill-opacity:1"
         d="m 132.52966,222.923 -6.26901,13.33672 14.8058,-8.66565 z"
         id="path318" /><path
         style="fill:#4a4a4a;fill-opacity:1"
         d="m 126.26065,236.25972 -15.65707,-15.11502 21.92608,1.7783 z"
         id="path319" /><path
         style="fill:#40291d;fill-opacity:1"
         d="m 163.97082,245.15088 -11.30627,1.95522 0.5467,-1.95522 12.03568,-2.25007 z"
         id="path320" /><path
         style="fill:#3c2919;fill-opacity:1"
         d="m 152.66455,247.1061 -26.80326,-8.49473 0.38658,-1.353 26.96338,7.89251 z"
         id="path321" /></g></g><g
     inkscape:groupmode="layer"
     id="layer1"
     inkscape:label="Elements-mid"><path
       style="fill:#4e4e50;fill-opacity:1"
       d="m 256.53659,191 h 0.92682 L 257,233 Z"
       id="path496" /><path
       style="fill:#515157;fill-opacity:1"
       d="m 256.53659,191 h 0.92682 v -23 h -0.92682 z"
       id="path497" /><path
       style="fill:#3a3a3c;fill-opacity:1"
       d="m 256.53659,168 h 0.92682 L 257,158 Z"
       id="path498" /><path
       style="fill:#7d7c7e;fill-opacity:1"
       d="m 257,233 -1,23 h 2 z"
       id="path499" /><path
       style="fill:#6e6d72;fill-opacity:1"
       d="m 256,256 v 23.63445 h 2 V 256 Z"
       id="path500" /><path
       style="fill:#79787e;fill-opacity:1"
       d="m 256,279.63445 v 11.93617 h 2 v -11.93617 z"
       id="path501" /><path
       style="fill:#0f0f13;fill-opacity:1"
       d="m 256,291.57062 v 7.65373 h 2 v -7.65373 z"
       id="path502" /><path
       style="fill:#08080a;fill-opacity:1"
       d="m 256,299.22435 v 6.74257 h 2 v -6.74257 z"
       id="path503" /><path
       style="fill:#1f1410;fill-opacity:1"
       d="m 256,305.96692 v 2.91571 h 2 v -2.91571 z"
       id="path504" /><path
       style="fill:#05050a;fill-opacity:1"
       d="m 256,308.88263 v 4.64691 h 2 v -4.64691 z"
       id="path505" /><path
       style="fill:#281a11;fill-opacity:1"
       d="m 256,313.52954 v 4.37356 h 2 v -4.37356 z"
       id="path506" /><path
       style="fill:#040507;fill-opacity:1"
       d="m 256,317.9031 0.61917,16.86798 h 0.76166 L 258,317.9031 Z"
       id="path507" /><path
       style="fill:#6d5336;fill-opacity:1"
       d="m 247.92131,339.34551 -7.15158,12.8213 7.15158,12.30586 8.94409,-0.12886 9.21329,0.12886 7.15158,-12.30586 -7.15158,-12.8213 -8.82672,-0.19328 H 257 Z"
       id="path515" /><path
       style="fill:#7e491c;fill-opacity:1"
       d="m 244.24888,368.66053 h 25.50224 l -3.67243,-4.18786 h -18.15738 z"
       id="path516" /><path
       style="fill:#967040;fill-opacity:1"
       d="m 244.24888,368.66053 2.64157,5.99186 h 20.2191 l 2.64157,-5.99186 z"
       id="path517" /><path
       style="fill:#56432b;fill-opacity:1"
       d="m 246.89045,374.65239 -7.92472,10.69515 7.08715,13.78772 h 21.89424 l 7.08715,-13.78772 -7.92472,-10.69515 z"
       id="path518" /><path
       style="fill:#5d3619;fill-opacity:1"
       d="m 246.05288,399.13526 -2.83486,4.31672 h 27.56396 l -2.83486,-4.31672 z"
       id="path519" /><path
       style="fill:#28190f;fill-opacity:1"
       d="m 245.28379,334.77108 2.63752,4.57443 8.82672,-0.19328 h 0.50394 l 8.82672,0.19328 2.63752,-4.57443 h -11.33538 -0.76166 z"
       id="path514" /></g><use
     x="0"
     y="0"
     xlink:href="#layer2"
     id="use496"
     inkscape:label="use496"
     transform="matrix(-1,0,0,1,514,0)" /><g
     inkscape:groupmode="layer"
     id="layer4"
     inkscape:label="Anubee-text"
     style="display:none"><g
       inkscape:groupmode="layer"
       id="layer5"
       inkscape:label="Anubee-text-1"><path
         style="fill:#2f333e;fill-opacity:1"
         d="m 211.45471,420.3967 -7.79587,16.81587 1.48186,-0.32215 7.15158,-15.01186 z"
         id="path520" /><path
         style="fill:#6b6a6f;fill-opacity:1"
         d="m 211.45471,420.3967 h 1.54628 l -0.70871,1.48186 z"
         id="path521" /><path
         style="fill:#78726e;fill-opacity:1"
         d="m 212.29228,421.87856 7.15157,14.94743 1.73958,0.38658 -8.18244,-16.81587 z"
         id="path522" /><path
         style="fill:#1e1e20;fill-opacity:1"
         d="m 212.29228,421.87856 -7.15158,15.01186 1.41743,0.83757 5.66972,-13.27229 z"
         id="path523" /><path
         style="fill:#151314;fill-opacity:1"
         d="m 212.22785,424.4557 5.99186,13.27229 1.22414,-0.902 -7.15157,-14.94743 z"
         id="path524" /><path
         style="fill:#1a191e;fill-opacity:1"
         d="m 219.44385,436.82599 -1.22414,0.902 1.61072,0.77315 1.353,-1.28857 z"
         id="path525" /><path
         style="fill:#1a191e;fill-opacity:1"
         d="m 205.1407,436.89042 -1.48186,0.32215 1.48186,1.28857 1.41743,-0.77315 z"
         id="path526" /><path
         style="fill:#b38854;fill-opacity:1"
         d="m 212.29228,428.38585 -2.255,3.25364 2.19057,-0.0966 z"
         id="path527" /><path
         style="fill:#eec681;fill-opacity:1"
         d="m 212.29228,428.38585 2.12614,3.25364 -2.19057,-0.0966 z"
         id="path529" /><path
         style="fill:#7e4d1f;fill-opacity:1"
         d="m 210.03728,431.63949 2.255,3.31807 2.12614,-3.31807 -2.19057,-0.0966 z"
         id="path530" /></g><g
       inkscape:groupmode="layer"
       id="layer6"
       inkscape:label="Anubee-text-2"><path
         style="fill:#1a191e;fill-opacity:1"
         d="m 225.42058,437.66356 1.00228,0.83758 1.59447,-0.83758 -1.59447,-0.45099 z"
         id="path532" /><path
         style="fill:#2d2c2f;fill-opacity:1"
         d="m 226.42286,437.21257 1.59447,0.45099 -0.27334,-12.83606 -1.45781,-2.55124 z"
         id="path535" /><path
         style="fill:#4a494e;fill-opacity:1"
         d="m 238.04005,421.87856 -1.23004,-1.48186 h 2.73346 z"
         id="path537" /><path
         style="fill:#21242b;fill-opacity:1"
         d="m 226.28618,422.27626 -0.8656,-1.87956 v 17.26686 l 1.00228,-0.45099 z"
         id="path540" /><path
         style="fill:#09080d;fill-opacity:1"
         d="m 227.74399,424.8275 10.78483,12.38507 0.21737,-1.3208 -12.46001,-13.61551 z"
         id="path542"
         sodipodi:nodetypes="ccccc" /><path
         style="fill:#252727;fill-opacity:1"
         d="m 237.94891,434.95756 1.59456,1.86843 V 420.3967 l -1.50342,1.48186 z"
         id="path543"
         sodipodi:nodetypes="ccccc" /><path
         style="fill:#696564;fill-opacity:1"
         d="m 225.42058,420.3967 h 1.00228 l 11.53955,12.62932 0.78378,2.86575 -12.46006,-13.61551 z"
         id="path159"
         sodipodi:nodetypes="cccccc" /><path
         style="fill:#1f2027;fill-opacity:1"
         d="m 236.81001,420.3967 0.0392,11.41094 1.11324,1.21838 0.0776,-11.14746 z"
         id="path160" /><path
         style="fill:#1f2027;fill-opacity:1"
         d="m 238.52882,437.21257 0.72683,0.2255 0.28782,-0.61208 -0.79728,-0.93422 z"
         id="path162" /></g></g></svg>
